<svg id="Capa_1" enable-background="new 0 0 511.733 511.733" height="512" viewBox="0 0 511.733 511.733" width="512" xmlns="http://www.w3.org/2000/svg"><g><path d="m3.002 511.733 299.407-99.969c-85.447 0-183.975 0-266.14 0z"/><path d="m278.867 252.665c-1.858 0-187.698 0-189.653 0l-14.975 45h249.552z"/><path d="m64.256 327.665-18.003 54.099h346.007l11.617-3.879-50.136-50.22c-34.46 0-253.88 0-289.485 0z"/><path d="m136.627 110.187-37.43 112.479h149.72z"/><ellipse cx="451.803" cy="45" rx="44.95" ry="45"/><path d="m396.979 110h29.95v30h-29.95z"/><path d="m346.979 49h29.95v30h-29.95z"/><path d="m341.954 155h29.95v30h-29.95z"/><path d="m218.354 149.588c18.608 17.16 44.309 18.6 72.08 4.345-5.169 14.755-18.655 30.44-29.247 38.562l21.323 21.357c2.435-2.018 4.869-4.223 7.286-6.64 37.018-37.02 35.319-69.484 31.012-85.541-.044-.165-.09-.332-.135-.496 14.378-35.392.862-79.376-27.335-107.573l-13.177-13.2-21.231 21.196 13.186 13.208c13.525 13.525 22.599 31.917 24.102 50.264-24.607-19.407-59.066-21.427-79.643-.814-17.039 17.065-17.494 44.543-1.376 62.173zm19.452-44.138c4.57-4.578 10.419-5.831 15.454-5.831 12.199 0 26.393 7.224 34.196 19.797-.812 1.077-1.678 2.113-2.596 3.104-14.269 9.239-33.895 17.343-47.055 4.161-5.843-5.853-5.844-15.376.001-21.231z"/><path d="m441.961 207.074c8.986-7.331 21.409-14.029 36.802-14.029l29.967-.045-.045-30-29.944.045c-29.567 0-55.149 15.629-73.189 38.644-18.574 1.916-41.842 11-67.223 36.381-5.711 5.711-10.499 11.476-14.531 17.14l21.587 21.623c9.854-15.474 25.998-29.936 40.29-37.689-5.029 15.862-6.329 32.15-3.337 46.908 6.997 34.513 30.319 48.977 51.62 48.976 29.828 0 56.59-27.864 51.047-70.398-3.329-25.554-19.985-47.589-43.044-57.556zm-5.319 97.735c-11.688 1.942-21.463-7.759-24.902-24.719-2.952-14.558.758-32.283 9.596-48.118 18.204 3.36 31.582 18.581 33.921 36.533 2.91 22.333-7.609 34.474-18.615 36.304z"/></g></svg>