<?xml version="1.0" encoding="utf-8"?>
<!-- Generator: Adobe Illustrator 24.0.2, SVG Export Plug-In . SVG Version: 6.00 Build 0)  -->
<svg version="1.1" id="Capa_1" xmlns="http://www.w3.org/2000/svg" xmlns:xlink="http://www.w3.org/1999/xlink" x="0px" y="0px"
	 viewBox="0 0 512 512" style="enable-background:new 0 0 512 512;" xml:space="preserve">
<g>
	<path d="M475.7,412c-82.2,0-180.8,0-266.3,0L509,512L475.7,412z"/>
	<path d="M188,297.8h249.7l-15-45c-2,0-187.9,0-189.8,0L188,297.8z"/>
	<path d="M447.7,327.8c-35.6,0-255.2,0-289.6,0l-50.2,50.2l11.6,3.9h346.2L447.7,327.8L447.7,327.8z"/>
	<path d="M263,222.8h149.8l-37.4-112.5L263,222.8z"/>
	<ellipse cx="60" cy="45" rx="45" ry="45"/>
	<path d="M114.8,140.1h-30v-30h30V140.1z"/>
	<path d="M164.8,79h-30V49h30V79z"/>
	<path d="M169.9,185.1h-30v-30h30V185.1z"/>
	<path d="M296.7,146.5c16.1-17.6,15.7-45.1-1.4-62.2c-20.6-20.6-55.1-18.6-79.7,0.8c1.5-18.4,10.6-36.8,24.1-50.3l13.2-13.2
		L231.7,0.4l-13.2,13.2c-28.2,28.2-41.7,72.2-27.3,107.6c0,0.2-0.1,0.3-0.1,0.5c-4.3,16.1-6,48.5,31,85.6c2.4,2.4,4.9,4.6,7.3,6.6
		l21.3-21.4c-10.6-8.1-24.1-23.8-29.3-38.6c27.8,14.3,53.5,12.8,72.1-4.3L296.7,146.5z M274.1,126.7c-13.2,13.2-32.8,5.1-47.1-4.2
		c-0.9-1-1.8-2-2.6-3.1c7.8-12.6,22-19.8,34.2-19.8c5,0,10.9,1.3,15.5,5.8C279.9,111.4,279.9,120.9,274.1,126.7z"/>
	<path d="M69.8,207.2c-23.1,10-39.7,32-43.1,57.6c-5.5,42.6,21.2,70.4,51.1,70.4c21.3,0,44.6-14.5,51.6-49c3-14.8,1.7-31.1-3.3-46.9
		c14.3,7.8,30.5,22.2,40.3,37.7l21.6-21.6c-4-5.7-8.8-11.4-14.5-17.1c-25.4-25.4-48.7-34.5-67.3-36.4c-18-23-43.6-38.7-73.2-38.7
		l-30,0l0,30l30,0C48.4,193.1,60.8,199.8,69.8,207.2L69.8,207.2z M56.5,268.6c2.3-18,15.7-33.2,33.9-36.6
		c8.8,15.8,12.6,33.6,9.6,48.1c-3.4,17-13.2,26.7-24.9,24.7C64.1,303.1,53.6,291,56.5,268.6z"/>
</g>
</svg>
