<?xml version="1.0" encoding="utf-8"?>
<!-- Generator: Adobe Illustrator 24.0.2, SVG Export Plug-In . SVG Version: 6.00 Build 0)  -->
<svg version="1.1" id="Layer_1" xmlns="http://www.w3.org/2000/svg" xmlns:xlink="http://www.w3.org/1999/xlink" x="0px" y="0px"
	 viewBox="0 0 512 512" style="enable-background:new 0 0 512 512;" xml:space="preserve">
<style type="text/css">
	.st0{fill:#FFFFFF;}
</style>
<path class="st0" d="M261,512c-1.7,0-3.4,0-5.1,0c-40.1,0.1-77.2-0.9-113.3-3.1c-33.1-2-63.2-13.4-87.3-33
	c-23.2-18.9-39-44.5-47.1-76c-7-27.4-7.4-54.4-7.7-80.4C0.3,300.7,0.1,278.6,0,256c0.1-22.6,0.3-44.8,0.6-63.5
	c0.4-26,0.7-53,7.7-80.4c8-31.5,23.9-57.1,47.1-76c24-19.6,54.2-31,87.3-33C178.7,0.9,215.8-0.1,256,0c40.1-0.1,77.2,0.9,113.3,3.1
	c33.1,2,63.2,13.4,87.3,33c23.2,18.9,39,44.5,47.1,76c7,27.4,7.4,54.4,7.7,80.4c0.3,18.7,0.5,40.8,0.6,63.4v0.1
	c-0.1,22.5-0.3,44.7-0.6,63.4c-0.4,26-0.7,53-7.7,80.4c-8,31.5-23.9,57.1-47.1,76c-24,19.6-54.2,31-87.3,33
	C334.8,511,299.3,512,261,512z M255.9,472c39.5,0.1,75.7-0.9,110.9-3c25-1.5,46.7-9.6,64.4-24.1c16.4-13.4,27.7-31.9,33.6-54.9
	c5.8-22.8,6.2-47.4,6.5-71.1c0.3-18.6,0.5-40.6,0.6-62.9c-0.1-22.3-0.3-44.3-0.6-62.9c-0.3-23.7-0.7-48.2-6.5-71.1
	c-5.9-23-17.2-41.5-33.6-54.9c-17.8-14.5-39.4-22.6-64.4-24.1c-35.2-2.1-71.5-3.1-110.9-3c-39.5-0.1-75.7,0.9-110.9,3
	c-25,1.5-46.7,9.6-64.4,24.1C64.2,80.5,52.9,99,47.1,122.1c-5.8,22.8-6.2,47.4-6.5,71.1c-0.3,18.6-0.5,40.6-0.6,62.9
	c0.1,22.2,0.3,44.2,0.6,62.8c0.3,23.7,0.7,48.2,6.5,71.1c5.9,23,17.2,41.5,33.6,54.9c17.8,14.5,39.4,22.6,64.4,24.1
	C180.3,471.1,216.6,472.1,255.9,472z M255,381c-68.9,0-125-56.1-125-125s56.1-125,125-125c68.9,0,125,56.1,125,125
	S323.9,381,255,381z M255,171c-46.9,0-85,38.1-85,85s38.1,85,85,85c46.9,0,85-38.1,85-85S301.9,171,255,171z M394,91
	c-16.6,0-30,13.4-30,30s13.4,30,30,30c16.6,0,30-13.4,30-30S410.6,91,394,91z"/>
</svg>
