<?xml version="1.0" encoding="iso-8859-1"?>
<!-- Generator: Adobe Illustrator 19.0.0, SVG Export Plug-In . SVG Version: 6.00 Build 0)  -->
<svg version="1.1" id="Capa_1" xmlns="http://www.w3.org/2000/svg" xmlns:xlink="http://www.w3.org/1999/xlink" x="0px" y="0px"
	 viewBox="0 0 512 512" style="enable-background:new 0 0 512 512;" xml:space="preserve">
<g>
	<g>
		<path d="M509.974,327.757C461.61,172.151,339.853,50.393,184.203,2.016c-23.854-7.257-48.218,6.823-55.262,29.776
			c-7.625,23.32,4.806,48.103,27.551,55.818c0.557,0.249,1.128,0.454,1.699,0.645c126.533,39.75,225.808,139.025,265.559,265.558
			c0.176,0.557,0.396,1.114,0.63,1.656c7.889,23.319,33.187,35.015,55.511,27.697C504.551,375.72,517.216,349.223,509.974,327.757z"
			/>
	</g>
</g>
<g>
	<g>
		<path d="M126.246,182.741c-5.029-2.217-10.293-3.268-15.648-3.554l-28.045,81.463c7.422,5.155,16.221,8.272,25.546,8.272
			c24.811-0.001,44.995-20.185,44.995-44.996C153.093,206.102,142.563,189.932,126.246,182.741z"/>
	</g>
</g>
<g>
	<g>
		<path d="M208.443,413.968c-7.66-15.453-23.112-25.061-40.351-25.061c-24.811,0-44.994,20.184-44.994,44.995
			c0,12.392,4.936,23.933,13.885,32.501c0.668,0.639,1.452,1.091,2.151,1.685l72.783-25.059
			C213.877,432.983,212.932,423.032,208.443,413.968z"/>
	</g>
</g>
<g>
	<g>
		<path d="M288.077,298.918c-8.275,0-14.998,6.723-14.998,14.998c0,8.275,6.722,14.998,14.998,14.998
			c8.275,0,14.998-6.723,14.998-14.998C303.075,305.641,296.352,298.918,288.077,298.918z"/>
	</g>
</g>
<g>
	<g>
		<path d="M395.964,365.077C354.895,234.742,268.002,161.866,144.246,115c-3.386-1.121-6.71-2.752-9.978-4.566l-13.694,39.775
			c6.04,1.011,12.016,2.549,17.785,5.084c27.17,11.995,44.731,38.931,44.731,68.635c0,41.348-33.643,74.991-74.991,74.991
			c-12.654,0-24.641-3.726-35.425-9.574L0.822,492.027c-1.875,5.419-0.483,11.425,3.574,15.481
			c4.121,4.121,10.188,5.419,15.481,3.574l88.368-32.361c-9.707-12.879-15.144-28.333-15.144-44.819
			c0-41.348,33.643-74.991,74.991-74.991c28.722,0,54.485,15.994,67.228,41.743c4.998,10.09,6.741,20.957,6.908,31.941
			l159.405-54.879C399.381,373.719,397.46,369.504,395.964,365.077z M208.694,324.52c-5.858,5.858-15.353,5.858-21.212,0
			c-5.857-5.857-5.857-15.353,0-21.21c5.858-5.857,15.353-5.857,21.212,0C214.551,309.167,214.551,318.664,208.694,324.52z
			 M217.48,204.535c-5.858-5.859-5.858-15.35,0-21.208s15.35-5.858,21.208,0l29.996,29.996c5.858,5.858,5.858,15.35,0,21.208
			c-5.859,5.859-15.349,5.859-21.208,0L217.48,204.535z M288.077,358.911c-24.811,0-44.995-20.184-44.995-44.995
			c0-24.811,20.184-44.995,44.995-44.995c24.811,0,44.995,20.184,44.995,44.995C333.072,338.727,312.888,358.911,288.077,358.911z"
			/>
	</g>
</g>
<g>
</g>
<g>
</g>
<g>
</g>
<g>
</g>
<g>
</g>
<g>
</g>
<g>
</g>
<g>
</g>
<g>
</g>
<g>
</g>
<g>
</g>
<g>
</g>
<g>
</g>
<g>
</g>
<g>
</g>
</svg>
