<?xml version="1.0" encoding="utf-8"?>
<!-- Generator: Adobe Illustrator 24.0.2, SVG Export Plug-In . SVG Version: 6.00 Build 0)  -->
<svg version="1.1" id="Capa_1" xmlns="http://www.w3.org/2000/svg" xmlns:xlink="http://www.w3.org/1999/xlink" x="0px" y="0px"
	 viewBox="0 0 512 512" style="enable-background:new 0 0 512 512;" xml:space="preserve">
<g>
	<g>
		<path d="M426,89C386.9,32.5,324.9,0,256,0S125.1,32.5,86.1,89C47.2,145.3,38.2,216.6,62,279.5c6.4,17.2,16.5,33.9,30,49.5
			l150.4,176.6c3.4,4,8.4,6.3,13.6,6.3s10.2-2.3,13.6-6.3L420,329.1c13.6-15.7,23.7-32.4,30-49.5C473.8,216.6,464.8,145.3,426,89z
			 M416.5,267.1c-4.9,13.2-12.8,26.2-23.6,38.7l-0.1,0.1L256,466.5L119.2,305.8c-10.8-12.5-18.7-25.5-23.7-38.8
			c-19.7-52.1-12.2-111,20-157.6C147.8,62.6,199,35.8,256,35.8s108.2,26.8,140.5,73.6C428.7,156,436.2,214.9,416.5,267.1z"/>
	</g>
</g>
<g>
	<g>
		<path d="M256,106.2c-55.3,0-100.3,45-100.3,100.3s45,100.3,100.3,100.3s100.3-45,100.3-100.3S311.3,106.2,256,106.2z M256,270.9
			c-35.5,0-64.4-28.9-64.4-64.4S220.5,142,256,142s64.4,28.9,64.4,64.4S291.5,270.9,256,270.9z"/>
	</g>
</g>
</svg>
